<svg xmlns="http://www.w3.org/2000/svg" version="1.1" width="100" height="100" viewBox="0 0 100 100"><rect x="0" y="0" width="100" height="100" fill="#ffffff"/><g transform="scale(4.762)"><g transform="translate(0,0)"><path fill-rule="evenodd" d="M10 0L10 1L11 1L11 0ZM12 0L12 2L13 2L13 0ZM8 2L8 3L9 3L9 2ZM10 2L10 3L11 3L11 2ZM12 3L12 4L11 4L11 5L10 5L10 4L9 4L9 6L8 6L8 8L4 8L4 9L3 9L3 8L0 8L0 10L1 10L1 11L0 11L0 13L1 13L1 12L2 12L2 13L4 13L4 12L5 12L5 11L7 11L7 12L6 12L6 13L7 13L7 12L9 12L9 13L8 13L8 17L9 17L9 18L8 18L8 21L10 21L10 20L11 20L11 21L12 21L12 20L11 20L11 19L10 19L10 20L9 20L9 18L10 18L10 16L11 16L11 18L12 18L12 19L13 19L13 18L14 18L14 21L15 21L15 19L19 19L19 20L18 20L18 21L19 21L19 20L20 20L20 21L21 21L21 18L20 18L20 17L19 17L19 16L20 16L20 15L19 15L19 14L20 14L20 13L21 13L21 12L19 12L19 10L21 10L21 9L19 9L19 8L18 8L18 9L15 9L15 8L12 8L12 9L11 9L11 6L12 6L12 7L13 7L13 6L12 6L12 5L13 5L13 3ZM9 6L9 9L6 9L6 10L7 10L7 11L8 11L8 10L10 10L10 6ZM1 9L1 10L3 10L3 11L2 11L2 12L4 12L4 10L5 10L5 9L4 9L4 10L3 10L3 9ZM12 9L12 11L13 11L13 12L12 12L12 14L11 14L11 15L12 15L12 14L13 14L13 13L14 13L14 14L15 14L15 15L13 15L13 17L12 17L12 18L13 18L13 17L15 17L15 18L16 18L16 17L15 17L15 16L16 16L16 13L15 13L15 12L14 12L14 11L13 11L13 9ZM14 9L14 10L15 10L15 11L16 11L16 10L15 10L15 9ZM18 9L18 10L17 10L17 11L18 11L18 10L19 10L19 9ZM9 11L9 12L10 12L10 13L11 13L11 12L10 12L10 11ZM18 12L18 13L19 13L19 12ZM17 14L17 15L18 15L18 16L17 16L17 17L18 17L18 18L19 18L19 19L20 19L20 18L19 18L19 17L18 17L18 16L19 16L19 15L18 15L18 14ZM16 20L16 21L17 21L17 20ZM0 0L0 7L7 7L7 0ZM1 1L1 6L6 6L6 1ZM2 2L2 5L5 5L5 2ZM14 0L14 7L21 7L21 0ZM15 1L15 6L20 6L20 1ZM16 2L16 5L19 5L19 2ZM0 14L0 21L7 21L7 14ZM1 15L1 20L6 20L6 15ZM2 16L2 19L5 19L5 16Z" fill="#000000"/></g></g></svg>