<svg xmlns="http://www.w3.org/2000/svg" version="1.1" width="100" height="100" viewBox="0 0 100 100"><rect x="0" y="0" width="100" height="100" fill="#ffffff"/><g transform="scale(4.762)"><g transform="translate(0,0)"><path fill-rule="evenodd" d="M8 0L8 1L9 1L9 4L10 4L10 5L11 5L11 6L10 6L10 7L9 7L9 6L8 6L8 8L9 8L9 9L8 9L8 10L9 10L9 11L8 11L8 12L6 12L6 11L7 11L7 10L6 10L6 11L5 11L5 8L3 8L3 9L2 9L2 8L0 8L0 9L1 9L1 10L0 10L0 11L3 11L3 12L4 12L4 13L8 13L8 14L9 14L9 16L8 16L8 18L9 18L9 16L10 16L10 14L9 14L9 11L11 11L11 12L10 12L10 13L11 13L11 12L12 12L12 11L11 11L11 8L12 8L12 10L13 10L13 11L14 11L14 10L15 10L15 11L16 11L16 10L17 10L17 12L16 12L16 13L15 13L15 12L13 12L13 13L12 13L12 15L13 15L13 16L12 16L12 17L10 17L10 19L8 19L8 21L9 21L9 20L10 20L10 21L11 21L11 20L10 20L10 19L12 19L12 21L17 21L17 20L14 20L14 19L17 19L17 18L18 18L18 19L19 19L19 20L18 20L18 21L20 21L20 19L21 19L21 18L19 18L19 15L20 15L20 16L21 16L21 12L20 12L20 11L19 11L19 9L18 9L18 10L17 10L17 9L15 9L15 8L14 8L14 9L13 9L13 4L12 4L12 3L11 3L11 2L12 2L12 1L13 1L13 0ZM10 1L10 2L11 2L11 1ZM11 4L11 5L12 5L12 4ZM11 6L11 7L12 7L12 6ZM6 8L6 9L7 9L7 8ZM20 8L20 9L21 9L21 8ZM3 9L3 10L4 10L4 9ZM9 9L9 10L10 10L10 9ZM4 11L4 12L5 12L5 11ZM18 11L18 12L17 12L17 15L16 15L16 16L15 16L15 14L14 14L14 13L13 13L13 14L14 14L14 16L13 16L13 17L17 17L17 16L18 16L18 14L19 14L19 13L20 13L20 12L19 12L19 11ZM0 0L0 7L7 7L7 0ZM1 1L1 6L6 6L6 1ZM2 2L2 5L5 5L5 2ZM14 0L14 7L21 7L21 0ZM15 1L15 6L20 6L20 1ZM16 2L16 5L19 5L19 2ZM0 14L0 21L7 21L7 14ZM1 15L1 20L6 20L6 15ZM2 16L2 19L5 19L5 16Z" fill="#000000"/></g></g></svg>